<svg width="32" height="32" fill="none" xmlns="http://www.w3.org/2000/svg"><g clip-path="url(#clip0)" fill="#666D89"><path fill-rule="evenodd" clip-rule="evenodd" d="M16.207.001l.206.004.205.006.205.01.204.011.204.014.202.017.202.019.201.021.201.026.2.026.199.03.198.03.197.034.197.037.196.039.193.04.195.044.193.046.192.05.19.049.192.052.189.056.188.058.187.059.187.062.185.064.184.066.183.069.183.07.18.073.181.075.178.077.178.079.177.08.176.085.173.085.173.087.172.089.171.091.17.094.167.095.168.098.166.1.163.1.164.104.161.105.16.107.16.108.157.111.156.113.154.114.154.116.152.118.15.12.15.12.146.125.147.125.144.126.143.128.142.13.14.132.137.134.136.134.135.136.134.139.132.14.13.141.128.142.126.145.125.146.124.147.122.15.119.15.118.152.115.154.115.154.113.156.11.158.109.159.107.16.104.16.104.164.101.164.1.166.097.167.095.168.094.17.092.17.089.172.087.174.085.173.084.176.08.177.08.178.077.178.075.18.072.18.071.184.069.183.066.184.064.185.062.187.06.187.057.188.055.189.052.191.05.19.05.193.046.192.043.195.04.194.04.196.037.196.033.198.032.198.029.199.026.2.025.2.022.201.02.203.016.202.013.203.012.205.01.204.006.206.003.206L32 16l-.002.206-.003.207-.006.204-.01.205-.012.204-.013.204-.017.202-.02.202-.02.202-.026.2-.026.2-.03.198-.03.199-.034.197-.038.196-.038.197-.041.194-.043.194-.046.193-.05.192-.05.192-.052.19-.055.189-.058.189-.059.186-.062.187-.064.185-.066.184-.069.184-.071.182-.072.18-.075.18-.077.18-.08.177-.08.177-.084.176-.085.174-.087.173-.09.171-.09.171-.095.17-.095.168-.097.166-.1.166-.101.165-.104.163-.104.161-.107.16-.109.16-.11.157-.113.156-.115.155-.115.153-.118.152-.12.15-.12.15-.125.147-.125.146-.126.144-.128.144-.13.14-.132.14-.134.138-.135.137-.136.135-.138.134-.14.131-.141.13-.143.129-.144.126-.147.125-.146.123-.15.121-.15.12-.152.117-.154.117-.154.115-.156.111-.158.111-.159.11-.16.107-.161.104-.164.104-.163.101-.166.099-.168.097-.167.095-.17.094-.17.092-.173.089-.173.087-.173.086-.176.083-.177.08-.178.08-.178.077-.18.075-.181.073-.183.071-.183.067-.184.067-.185.065-.187.061-.188.06-.187.057-.19.055-.19.053-.19.05-.193.049-.193.045-.195.044-.193.04-.197.04-.196.037-.197.033-.198.031-.2.03-.199.027-.2.024-.202.022-.202.019-.202.017-.204.014-.204.011-.205.01-.205.006-.206.005h-.413l-.207-.005-.204-.006-.205-.01-.205-.01-.203-.015-.202-.017-.202-.02-.202-.02-.2-.025-.2-.026-.198-.03-.2-.032-.196-.034-.197-.036-.196-.04-.195-.04-.193-.044-.193-.045-.192-.049-.192-.05-.19-.053-.189-.055-.189-.057-.186-.06-.187-.061-.185-.065-.184-.067-.184-.067-.182-.071-.18-.073-.181-.075-.18-.077-.176-.08-.177-.08-.176-.083-.174-.085-.174-.088-.17-.09-.171-.09-.17-.095-.169-.095-.166-.097-.166-.099-.165-.101-.162-.104-.161-.104-.16-.107-.16-.11-.157-.11-.156-.112-.155-.115-.153-.116-.152-.118-.15-.12-.15-.121-.148-.123-.145-.125-.145-.126-.143-.13-.14-.129-.14-.131-.139-.134-.137-.135-.135-.137-.133-.138-.131-.14-.13-.14-.129-.144-.126-.144-.125-.146-.123-.148-.122-.149-.119-.15-.118-.152-.117-.153-.114-.155-.112-.156-.11-.157-.11-.16-.107-.16-.105-.161-.103-.163-.101-.165-.099-.166-.097-.166-.096-.168-.093-.17-.092-.17-.089-.172-.088-.173-.085-.174-.083-.176-.08-.177-.08-.177-.077-.18-.075-.18-.073-.18-.071-.182-.068-.184-.066-.184-.065-.185-.061-.187-.06-.186-.057-.19-.055-.188-.053-.19-.05-.192-.049-.192-.046-.193-.043-.194-.04-.195-.04-.196-.037-.196-.033-.197-.032-.199-.03-.198-.026-.2-.024-.2-.022-.202-.02-.202-.016-.202-.015-.204-.01-.204-.01-.205-.006-.204-.005-.207L0 16l.001-.207.005-.206.006-.206.01-.204.01-.205.015-.203.017-.202.019-.203.022-.2.024-.201.026-.2.03-.199.032-.198.033-.198.036-.196.04-.196.041-.194.043-.195.046-.192.048-.193.05-.19.054-.191.055-.19.057-.187.06-.188.061-.186.065-.185.066-.184.068-.183.07-.183.074-.18.075-.181.077-.178.08-.178.08-.177.083-.176.085-.173.088-.174.09-.172.09-.17.094-.17.096-.168.097-.167.099-.166.1-.164.104-.163.105-.161.107-.16.11-.16.11-.157.112-.156.114-.154.117-.154.118-.152.12-.15.12-.15.124-.147.125-.146.126-.145.129-.142.13-.142.13-.14.135-.138.134-.136.137-.134.139-.134.14-.132.14-.13.143-.128.145-.126.145-.125.148-.124.15-.122.15-.12.152-.117.153-.116.155-.114.156-.113.157-.11.16-.109.16-.107.161-.105.162-.103.165-.101.166-.1.166-.098.169-.095.17-.094.17-.091.171-.09.174-.086.174-.085.176-.084.177-.081.177-.08.179-.076.18-.075.18-.072.183-.071.184-.069.184-.066.185-.064.187-.062.186-.06.19-.057.188-.056.19-.052.192-.05.192-.05.193-.045.193-.043.195-.041.196-.039.197-.037.197-.034.198-.03.199-.03.2-.026.2-.026.202-.021.202-.02.202-.016.203-.014.205-.012.204-.01.205-.005.207-.004L16 0l.207.001zm-.4 1l-.195.004-.192.006-.191.008-.192.011-.191.013-.19.016-.19.018-.188.02-.188.023-.188.026-.186.026-.185.03-.186.031-.184.035-.183.036-.183.039-.181.04-.18.044-.181.045-.18.048-.178.05-.177.05-.177.054-.175.056-.175.058-.173.06-.172.062-.172.065-.171.066-.17.067-.168.07-.167.072-.168.075-.165.076-.164.078-.164.08-.163.082-.16.083-.16.087-.159.087-.157.09-.157.09-.155.094-.154.095-.153.096-.151.1-.15.099-.15.102-.148.104-.146.106-.145.107-.145.108-.142.11-.14.114-.14.113-.138.115-.138.118-.134.118-.135.12-.132.123-.132.123-.13.125-.127.127-.127.128-.125.13-.124.13-.121.134-.12.133-.12.136-.116.136-.116.139-.114.14-.112.14-.11.143-.11.144-.106.145-.106.147-.104.147-.102.15-.1.15-.098.151-.098.153-.095.154-.093.155-.091.157-.09.157-.087.16-.085.16-.085.16-.081.163-.08.162-.078.165-.076.166-.075.166-.072.168-.07.168-.068.17-.066.17-.064.173-.063.172-.06.174-.058.175-.055.175-.054.176-.052.178-.05.178-.046.18-.046.179-.042.182-.04.181-.04.182-.037.184-.033.184-.032.184-.03.187-.027.186-.024.187-.023.188-.02.189-.019.189-.016.19-.013.191-.01.191-.01.193-.006.192-.004.193L1 16l.001.194.004.193.006.193.01.191.01.192.014.19.015.191.018.189.02.189.024.188.024.187.027.187.03.185.032.185.033.185.038.183.038.182.041.182.042.18.046.181.047.18.05.178.05.176.055.177.055.176.058.174.06.174.063.172.064.172.066.17.068.17.07.169.072.167.075.168.076.164.078.165.08.164.081.162.085.16.085.16.088.16.089.157.091.156.093.156.095.154.098.152.098.152.1.15.102.15.104.148.106.145.107.146.108.144.11.142.113.141.114.14.116.138.116.137.12.135.12.135.121.132.124.131.125.13.127.128.127.126.13.125.132.124.132.122.135.12.134.12.138.116.138.116.14.114.14.112.142.11.145.109.145.107.146.106.148.103.15.103.15.1.151.098.153.098.154.095.155.092.157.092.157.089.16.088.16.085.16.084.162.082.164.08.164.078.165.076.168.074.167.072.168.07.17.069.17.066.173.064.172.062.173.06.175.058.175.056.177.054.177.052.178.049.18.047.18.046.18.042.182.04.183.04.183.036.184.034.186.031.185.03.186.028.188.024.188.023.189.02.189.019.19.015.191.014.191.01.192.01.192.006.194.004h.389l.192-.004.193-.006.192-.01.192-.01.191-.014.19-.015.19-.018.188-.02.188-.024.186-.024.187-.027.186-.03.184-.032.185-.034.184-.037.181-.038.182-.041.182-.042.18-.046.178-.047.179-.05.178-.051.175-.054.176-.056.174-.057.175-.06.172-.063.172-.064.171-.066.17-.069.168-.07.167-.072.166-.074.166-.076.165-.078.163-.08.162-.082.162-.084.16-.085.159-.088.157-.09.156-.09.156-.093.154-.095.153-.098.151-.099.15-.1.15-.102.147-.103.146-.106.146-.107.143-.108.144-.111.14-.112.14-.114.138-.116.136-.117.136-.119.134-.12.133-.122.13-.124.13-.125.13-.126.125-.128.126-.13.122-.13.123-.133.12-.135.118-.135.118-.137.116-.138.113-.14.113-.14.11-.143.109-.144.107-.146.106-.145.104-.148.102-.15.1-.15.098-.152.097-.152.095-.154.094-.156.09-.156.09-.158.087-.159.086-.16.083-.16.082-.162.08-.164.079-.165.076-.165.074-.167.073-.167.07-.169.067-.17.066-.17.065-.172.061-.172.06-.174.058-.174.057-.176.053-.177.052-.176.049-.179.048-.179.045-.18.043-.18.04-.183.04-.183.035-.182.035-.184.032-.186.03-.185.026-.187.025-.187.023-.188.02-.189.019-.189.015-.19.014-.191.01-.192.009-.191.006-.193.003-.193L31 16l-.002-.195-.003-.193-.006-.192-.009-.193-.01-.191-.014-.191-.015-.19-.018-.19-.02-.188-.024-.188-.025-.187-.026-.186-.03-.187-.032-.184-.035-.184-.036-.184-.038-.182-.041-.181-.043-.182-.045-.18-.048-.179-.05-.178-.051-.178-.053-.176-.057-.175-.057-.175-.06-.174-.062-.172-.065-.172-.066-.171-.068-.17-.07-.168-.072-.168-.074-.166-.076-.166-.078-.165-.08-.162-.083-.163-.083-.16-.086-.16-.087-.16-.09-.157-.09-.157-.094-.155-.095-.154-.097-.153-.098-.152-.1-.15-.102-.15-.104-.146-.106-.147-.107-.145-.108-.144-.111-.143-.113-.14-.113-.14-.116-.139-.118-.136-.118-.136-.12-.133-.123-.134-.122-.13-.126-.13-.126-.128-.129-.127-.13-.125-.13-.123-.133-.122-.134-.12-.136-.119-.136-.118-.138-.115-.14-.113-.142-.113-.142-.111-.143-.108-.146-.107-.146-.106-.147-.104-.15-.102-.15-.1-.151-.099-.153-.096-.154-.095-.155-.094-.157-.09-.158-.09-.158-.087-.16-.087-.162-.083-.162-.081-.163-.081-.165-.078-.166-.076-.166-.075-.167-.072-.168-.07-.17-.067-.17-.066-.173-.065-.172-.062-.175-.06-.174-.058-.176-.056-.175-.053-.178-.052-.179-.05-.179-.047-.18-.045-.18-.043-.183-.041-.181-.039-.184-.036-.184-.035-.185-.03-.186-.03-.187-.027-.186-.026-.188-.023-.189-.02-.189-.018-.19-.016-.191-.013-.192-.01-.192-.01-.193-.005L16.195 1H16l-.194.001z"/><path d="M9.079 13.234h2.993V23H9.079v-9.766zm3.091-2.716c0 .838-.61 1.518-1.615 1.518-.945 0-1.555-.68-1.555-1.518C9 9.659 9.63 9 10.595 9s1.556.659 1.575 1.518zm1.693 5.827c0-1.218-.04-2.237-.079-3.116h2.6l.138 1.358h.059c.393-.639 1.358-1.578 2.973-1.578 1.97 0 3.446 1.339 3.446 4.214v5.772h-2.993v-5.412c0-1.258-.433-2.117-1.517-2.117-.826 0-1.318.58-1.535 1.139-.08.2-.099.479-.099.758v5.632h-2.993v-6.65z"/></g><defs><clipPath id="clip0"><path fill="#fff" d="M0 0h32v32H0z"/></clipPath></defs></svg>